<svg enable-background="new 0 0 700 700" viewBox="0 0 700 700" xmlns="http://www.w3.org/2000/svg" xmlns:xlink="http://www.w3.org/1999/xlink"><defs><path id="a" d="m311.3 464.9v29.6h9.8v-26.6c-3.5-2.6-7.1-3.1-9.8-3z"/><linearGradient id="b"><stop offset="0" stop-color="#b0d8ff"/><stop offset=".01537955" stop-color="#b3d9ff"/><stop offset=".145" stop-color="#c4e1ff"/><stop offset=".3014" stop-color="#d1e7ff"/><stop offset=".5117" stop-color="#d8eaff"/><stop offset="1" stop-color="#daebff"/></linearGradient><linearGradient id="c" gradientUnits="userSpaceOnUse" x1="128.3827" x2="131.4272" xlink:href="#b" y1="74.9587" y2="390.0464"/><linearGradient id="d" gradientTransform="matrix(.9992 -.0396 .0396 .9992 -15.4724 21.797)" gradientUnits="userSpaceOnUse" x1="101.3086" x2="101.3086" y1="417.9773" y2="484.5216"><stop offset=".3656" stop-color="#86cf94"/><stop offset=".9892" stop-color="#008166"/></linearGradient><linearGradient id="e" gradientUnits="userSpaceOnUse" x1="391.5393" x2="391.5393" xlink:href="#b" y1="112.9994" y2="364.5812"/><clipPath id="f"><use xlink:href="#a"/></clipPath><clipPath id="g"><use xlink:href="#n"/></clipPath><clipPath id="h"><use xlink:href="#o"/></clipPath><clipPath id="i"><use xlink:href="#p"/></clipPath><clipPath id="j"><use xlink:href="#q"/></clipPath><clipPath id="k"><use xlink:href="#r"/></clipPath><clipPath id="l"><use xlink:href="#s"/></clipPath><clipPath id="m"><use xlink:href="#t"/></clipPath><path id="n" d="m333.9 319.5s11.1-4 27.7 0 26.5 20.5 27 33.8c.6 13.3-5.4 95.3-27.4 116.1-21.9 20.7-77.3 10.5-88.6 6.2s-19.6-21.4-19.6-21.4l56.7-40.3 3-86.5z"/><path id="o" d="m296.9 315.3-1.3-.1s-13.8.4-18.2 5.8c-4.3 5.4-7.3 30.5-7.3 30.5l8.6 64.5s5.2 9.1 31.4 9.1 36.5-10.7 36.5-10.7l-2.4-30.2s4.4-6.8 5.1-14.2c.7-7.3-6.5-46.4-14.3-52.1s-25.2-3.2-25.2-3.2z"/><path id="p" d="m280.3 414.8-1.6 1.2s-47.1 15.2-51.5 29.5 2.6 96.3 2.6 96.3 12.8 10.1 24.1-1l.9-76.6 47.6-17.6 13.8.4s16.5-11.8 17.5-12.6 14-10.1 14-10.1l-8-13.2z"/><path id="q" d="m313.8 422.3s-24.9 21.2-27 36.9 0 84.8 0 84.8 16.1 10.7 27 0c0 0-4.5-63.1 5.2-73.8s26.8-20.4 28.9-36.3-1.2-19.6-1.2-19.6l-16.5-2.7z"/><path id="r" d="m295.2 301.4s2.3 4.7.4 13.8c0 0 1.4 4.4 6.5 4.3s7.6-4.9 7.6-4.9-2.4-3.9-1.4-12.1l.1-3.1-6.4-4.3z"/><path id="s" d="m280.7 276.4s-13.1-.5-5.8-26.9c0 0 6.7 5.1 18.7 5.8s25.3.4 27 21.7c.7 13.8-12.2 25.6-12.2 25.6l-11.7-7.4z"/><path id="t" d="m280.1 273.1s-3.6 30 7.4 31.7 18.3-10.9 18.3-10.9 5.5-.7 5-6.5c-.6-5.8-4.9-3.6-4.9-3.6s-4.9-2.1-4.8-7.3c0 0-5.9 1.4-8.6-4.1 0 0-4.5 3.1-9-1.7 0 0-1.2 2.8-3.4 2.4z"/></defs><path d="m557.1 189.1h36.4v46.6h-36.4z" fill="#b0d8ff"/><path d="m559.3 191.2h32v42.3h-32z" fill="#fff"/><path d="m595.9 148.7h61.2v75.8h-61.2z" fill="#b0d8ff"/><path d="m599.5 152.1h54.1v69h-54.1z" fill="#fff"/><path d="m247.3 367.5h-230.3c-3 0-5.4-2.4-5.4-5.4v-239.8c0-3 2.4-5.4 5.4-5.4h230.3c3 0 5.4 2.4 5.4 5.4v239.8c0 3-2.4 5.4-5.4 5.4z" fill="#b0d8ff"/><path d="m243.4 367.5h-226.7c-2.8 0-5-2.3-5-5v-236.2c0-2.8 2.3-5 5-5h226.7c2.8 0 5 2.3 5 5v236.2c0 2.7-2.2 5-5 5z" fill="url(#c)"/><path d="m237.9 177.9h-214.3c-1 0-1.7-.8-1.7-1.7v-42.6c0-1 .8-1.7 1.7-1.7h214.3c1 0 1.7.8 1.7 1.7v42.6c.1.9-.7 1.7-1.7 1.7z" fill="#d5e1f7"/><path d="m236.7 176.7h-214.3c-1 0-1.7-.8-1.7-1.7v-42.6c0-1 .8-1.7 1.7-1.7h214.3c1 0 1.7.8 1.7 1.7v42.6c.1.9-.7 1.7-1.7 1.7z" fill="#fff"/><path d="m238.1 359.7h-214.4c-1 0-1.7-.8-1.7-1.7v-42.6c0-1 .8-1.7 1.7-1.7h214.3c1 0 1.7.8 1.7 1.7v42.6c.1.9-.7 1.7-1.6 1.7z" fill="#d5e1f7"/><path d="m236.7 358h-214.3c-1 0-1.7-.8-1.7-1.7v-42.6c0-1 .8-1.7 1.7-1.7h214.3c1 0 1.7.8 1.7 1.7v42.6c.1.9-.7 1.7-1.7 1.7z" fill="#fff"/><path d="m93.5 324.7h-62.1c-1.8 0-3.2-1.4-3.2-3.2 0-1.8 1.4-3.2 3.2-3.2h62.1c1.8 0 3.2 1.4 3.2 3.2 0 1.8-1.4 3.2-3.2 3.2z" fill="#d5e1f7"/><path d="m230.4 339.8h-199c-1.8 0-3.2-1.4-3.2-3.2 0-1.8 1.4-3.2 3.2-3.2h199c1.8 0 3.2 1.4 3.2 3.2 0 1.8-1.5 3.2-3.2 3.2z" fill="#d5e1f7"/><path d="m232.2 351.6h-202.7c-.7 0-1.3-.6-1.3-1.3v-3.7c0-.7.6-1.3 1.3-1.3h202.7c.7 0 1.3.6 1.3 1.3v3.7c.1.7-.5 1.3-1.3 1.3z" fill="#ebf5ff"/><path d="m21.9 305v-118.1c0-.7.6-1.3 1.3-1.3h43.5c.7 0 1.3.6 1.3 1.3v118.1c0 .7-.6 1.3-1.3 1.3h-43.5c-.7 0-1.3-.6-1.3-1.3z" fill="#d5e1f7"/><path d="m21 303.4v-118.1c0-.7.6-1.3 1.3-1.3h43.5c.7 0 1.3.6 1.3 1.3v118.2c0 .7-.6 1.3-1.3 1.3h-43.5c-.8-.1-1.3-.7-1.3-1.4z" fill="#fff"/><path d="m78.1 303.9v-115.9c0-1.3 1.1-2.4 2.4-2.4h157.3c1.3 0 2.4 1.1 2.4 2.4v115.9c0 1.3-1.1 2.4-2.4 2.4h-157.3c-1.3 0-2.4-1.1-2.4-2.4z" fill="#d5e1f7"/><path d="m76.3 302.3v-115.9c0-1.3 1.1-2.4 2.4-2.4h157.3c1.3 0 2.4 1.1 2.4 2.4v115.9c0 1.3-1.1 2.4-2.4 2.4h-157.3c-1.3 0-2.4-1.1-2.4-2.4z" fill="#fff"/><path d="m130.9 195.4h-47c-.7 0-1.3-.6-1.3-1.3v-3.9c0-.7.6-1.3 1.3-1.3h47c.7 0 1.3.6 1.3 1.3v3.9c-.1.7-.6 1.3-1.3 1.3z" fill="#00d967"/><path d="m229.8 210.5h-145.9c-.7 0-1.3-.6-1.3-1.3v-3.8c0-.7.6-1.3 1.3-1.3h145.9c.7 0 1.3.6 1.3 1.3v3.8c0 .7-.6 1.3-1.3 1.3z" fill="#d5e1f7"/><path d="m229.8 222.3h-145.9c-.7 0-1.3-.6-1.3-1.3v-3.8c0-.7.6-1.3 1.3-1.3h145.9c.7 0 1.3.6 1.3 1.3v3.8c0 .7-.6 1.3-1.3 1.3z" fill="#ebf5ff"/><path d="m130.9 234h-47c-.7 0-1.3-.6-1.3-1.3v-3.9c0-.7.6-1.3 1.3-1.3h47c.7 0 1.3.6 1.3 1.3v3.9c-.1.8-.6 1.3-1.3 1.3z" fill="#00d967"/><path d="m229.8 249.1h-145.9c-.7 0-1.3-.6-1.3-1.3v-3.8c0-.7.6-1.3 1.3-1.3h145.9c.7 0 1.3.6 1.3 1.3v3.8c0 .8-.6 1.3-1.3 1.3z" fill="#d5e1f7"/><path d="m229.8 260.9h-145.9c-.7 0-1.3-.6-1.3-1.3v-3.8c0-.7.6-1.3 1.3-1.3h145.9c.7 0 1.3.6 1.3 1.3v3.8c0 .7-.6 1.3-1.3 1.3z" fill="#ebf5ff"/><path d="m130.9 272.7h-47c-.7 0-1.3-.6-1.3-1.3v-3.9c0-.7.6-1.3 1.3-1.3h47c.7 0 1.3.6 1.3 1.3v3.9c-.1.7-.6 1.3-1.3 1.3z" fill="#00d967"/><path d="m229.8 287.8h-145.9c-.7 0-1.3-.6-1.3-1.3v-3.8c0-.7.6-1.3 1.3-1.3h145.9c.7 0 1.3.6 1.3 1.3v3.8c0 .7-.6 1.3-1.3 1.3z" fill="#d5e1f7"/><path d="m229.8 299.6h-145.9c-.7 0-1.3-.6-1.3-1.3v-3.8c0-.7.6-1.3 1.3-1.3h145.9c.7 0 1.3.6 1.3 1.3v3.8c0 .7-.6 1.3-1.3 1.3z" fill="#ebf5ff"/><path d="m61.8 225.8h-36c-1 0-1.8-.8-1.8-1.8v-33.1c0-1 .8-1.8 1.8-1.8h36c1 0 1.8.8 1.8 1.8v33.1c.1 1-.7 1.8-1.8 1.8z" fill="#daebff"/><path d="m61.8 269.3h-36c-1 0-1.8-.8-1.8-1.8v-33.1c0-1 .8-1.8 1.8-1.8h36c1 0 1.8.8 1.8 1.8v33.1c.1 1-.7 1.8-1.8 1.8z" fill="#daebff"/><path d="m124.5 172.2h-44.1c-1 0-1.8-.8-1.8-1.8v-9.9c0-1 .8-1.8 1.8-1.8h44.1c1 0 1.8.8 1.8 1.8v9.9c0 .9-.8 1.8-1.8 1.8z" fill="#daebff"/><path d="m71.3 172.2h-44c-1 0-1.8-.8-1.8-1.8v-9.9c0-1 .8-1.8 1.8-1.8h44.1c1 0 1.8.8 1.8 1.8v9.9c0 .9-.8 1.8-1.9 1.8z" fill="#daebff"/><path d="m178.1 172.2h-44.1c-1 0-1.8-.8-1.8-1.8v-9.9c0-1 .8-1.8 1.8-1.8h44.1c1 0 1.8.8 1.8 1.8v9.9c.1.9-.8 1.8-1.8 1.8z" fill="#daebff"/><path d="m231.8 172.2h-44.1c-1 0-1.8-.8-1.8-1.8v-9.9c0-1 .8-1.8 1.8-1.8h44.1c1 0 1.8.8 1.8 1.8v9.9c0 .9-.8 1.8-1.8 1.8z" fill="#daebff"/><path d="m231.6 154h-205.5c-1.1 0-2-.9-2-2v-14.9c0-1.1.9-2 2-2h205.5c1.1 0 2 .9 2 2v14.9c0 1.1-.9 2-2 2z" fill="#daebff"/><ellipse cx="256.5" cy="565.8" fill="#e2eefa" rx="64.2" ry="17.3"/><ellipse cx="98.2" cy="538.9" fill="#e2eefa" rx="30.8" ry="9.6"/><ellipse cx="315.6" cy="545.4" fill="#e2eefa" rx="52.8" ry="13"/><ellipse cx="613.8" cy="523.6" fill="#e2eefa" rx="83.2" ry="9.1"/><ellipse cx="450.3" cy="569.4" fill="#e2eefa" rx="24" ry="7.5"/><path d="m3 495.3h657v4.4h-657z" fill="#d3e2f9"/><path d="m692.3 523.9h-154.8c-1.9 0-3.4-1.5-3.4-3.4v-259.4c0-1.9 1.5-3.4 3.4-3.4h154.8c1.9 0 3.4 1.5 3.4 3.4v259.4c.1 1.9-1.5 3.4-3.4 3.4z" fill="#d1e3ff"/><path d="m548.9 452.9h66.1v55.7h-66.1z" fill="#e3eeff"/><path d="m614.9 452.9h65.5v55.7h-65.5z" fill="#e3eeff"/><path d="m548.9 271.8h131.6v48.2h-131.6z" fill="#f5fcff"/><path d="m548.9 332.2h131.6v48.2h-131.6z" fill="#f5fcff"/><path d="m548.9 392.6h131.6v48.2h-131.6z" fill="#f5fcff"/><ellipse cx="600.6" cy="469.5" fill="#d1e3ff" rx="4.7" ry="4.4"/><ellipse cx="630.1" cy="469.5" fill="#d1e3ff" rx="4.7" ry="4.4"/><g stroke="#b6d4ff" stroke-miterlimit="10"><path d="m552.2 282.6h11v36.7h-11z" fill="#d1e3ff" stroke-width=".2214"/><path d="m563.2 282.6h11v36.7h-11z" fill="#d1e3ff" stroke-width=".2214"/><path d="m574.3 282.6h11v36.7h-11z" fill="#d1e3ff" stroke-width=".2214"/><path d="m585.3 282.6h11v36.7h-11z" fill="#d1e3ff" stroke-width=".2214"/><path d="m596.3 282.6h11v36.7h-11z" fill="#d1e3ff" stroke-width=".2214"/><path d="m617.3 343.4h11v36.7h-11z" fill="#d1e3ff" stroke-width=".2214"/><path d="m628.3 343.4h11v36.7h-11z" fill="#d1e3ff" stroke-width=".2214"/><path d="m576.3 345.1h10.5v38.6h-10.5z" fill="#d1e3ff" stroke-width=".2214" transform="matrix(0 1 -1 0 945.9474 -217.0632)"/><path d="m580 334.7h10.5v38.6h-10.5z" fill="#d1e3ff" stroke-width=".2214" transform="matrix(0 1 -1 0 939.2255 -231.2986)"/><path d="m580.6 355.6h10.5v38.6h-10.5z" fill="#d1e3ff" stroke-width=".2214" transform="matrix(0 1 -1 0 960.7659 -210.9242)"/><path d="m639.3 343.4h11v36.7h-11z" fill="#d1e3ff" stroke-width=".2214"/><path d="m650.3 343.4h11v36.7h-11z" fill="#d1e3ff" stroke-width=".2214"/><path d="m661.3 343.4h11v36.7h-11z" fill="#d1e3ff" stroke-width=".2214"/><path d="m560.1 404h11v36.7h-11z" fill="#d1e3ff" stroke-width=".2214"/><path d="m571.1 404h11v36.7h-11z" fill="#d1e3ff" stroke-width=".2214"/><path d="m582.1 404h11v36.7h-11z" fill="#d1e3ff" stroke-width=".2214"/><path d="m593.1 404h11v36.7h-11z" fill="#d1e3ff" stroke-width=".2214"/><path d="m604.1 404h11v36.7h-11z" fill="#d1e3ff" stroke-width=".2214"/><path d="m631.3 316.4-10.4 3.6-13.4-34.5 10.4-3.6z" fill="#d1e3ff" stroke-width=".2214"/><path d="m643.1 316.4-10.3 3.6-13.4-34.5 10.3-3.6z" fill="#d1e3ff" stroke-width=".2214"/><path d="m664.9 313-8.8 6.3-23.3-29.3 8.8-6.3z" fill="#d1e3ff" stroke-width=".2214"/><ellipse cx="649" cy="414.6" fill="#d1e3ff" rx="16.5" ry="15.7" stroke-width=".2214"/><path d="m649 433.5c-11 0-19.9-8.5-19.9-18.9s8.9-18.9 19.9-18.9" fill="none" stroke-width=".5147"/><path d="m636.5 437.6h23.9v3.1h-23.9z" fill="#d1e3ff" stroke-width=".2214"/><path d="m647.5 429.3h1.6v9h-1.6z" fill="#d1e3ff" stroke-width=".2214"/></g><path d="m115.1 499.1s23.9-1.3 23.9-6.1c0-3.8-14.6-.6-14.6-.6s16-4.6 23.3-8.4c1.6-.8 3.3-1.7 4.4-3.2 1.1-1.4 1.6-3.5.7-5.1-1.2-2.1-4.2-2.3-6.7-2-9.8 1.2-16.7 6.4-25.6 10.9 6.5-3.3 12.2-7.4 17.6-12.2 5-4.4 10.7-8.6 14-14.5 2.1-3.7 2.9-9.2-.8-12.3-3.6-3-8.7-1.6-12.6-.2-10.5 3.7-19.7 11-25.7 20.3 1.6-4.4 2.8-8.8 3.6-13.4.3-1.8.5-4.1-1-5.2-2-1.4-4.6.5-6.1 2.3-3.7 4.5-6.5 9.8-8.3 15.4 1.2-12.5 2.4-25.3-.3-37.6-.6-2.8-1.5-5.6-3.2-7.9-1.8-2.3-4.6-3.9-7.4-3.6-2.7.3-4.9 2.2-6.8 4.2-5.9 6.5-9.3 15.2-9.5 24s2.8 17.6 8.3 24.4c-2.9-3.1-6.2-5.7-9.8-8-.8-.5-2-.9-2.6-.2-.3.4-.3.9-.3 1.4.5 6 4.5 10.9 8.4 15.5-7.8-9-19.9-14.1-31.8-13.2-1.4.1-3.1.4-3.8 1.7-.4.7-.4 1.6-.4 2.4.6 6 5.9 10.3 11.1 13.3 4.4 2.6 8.9 4.7 13.5 6.8-2.6-.4-5.3-.5-7.9-.3-.6 0-1.3.1-1.6.6-.7.9.3 2.1 1.2 2.8 6.6 4.8 15 7.1 23.1 6.5" fill="#00d967"/><path d="m142.2 454.6c.3-.2.6.3.3.5-7.6 5.7-14.6 12.2-20.8 19.4-6.3 7.3-11.3 15.2-16.2 23.4-.2.3-.6.1-.5-.3 8.2-17.1 22-32 37.2-43zm-34.3 6.1c-4.4 11.2-7 25.2-6.1 37.3 0 .3.5.3.5 0 .2-12.1 2-25.6 6.3-37 0-.4-.6-.6-.7-.3zm-15.2-24.6c-2.1 20.5-.4 42.4 5.1 62.2.1.3.6.2.5-.2-2.1-10.4-4-20.8-4.8-31.4-.8-10.2-.7-20.4-.4-30.6 0-.2-.3-.2-.4 0zm-18.5 30.6c6.2 8.7 13 24.9 21.1 32 .3.3.7-.2.5-.5-7.3-8-14.5-23.1-21-31.8-.3-.3-.8 0-.6.3zm66.4 13.5c-12.2 5.5-24.8 12-35.2 20.6-.3.3 0 .8.4.6 11.4-7.6 22.4-15 35-20.7.2-.1.1-.6-.2-.5zm-76-1.5c8.9 5.3 18.4 16.7 28.1 20.4.3.1.6-.3.2-.5-9.4-4.6-19-15.2-28.1-20.4-.2-.1-.5.4-.2.5z" fill="url(#d)" opacity=".45"/><path d="m75.9 497.7h52v43.5h-52z" fill="#b0d8ff"/><path d="m117.7 497.7h10.2v43.5h-10.2z" fill="#daebff"/><path d="m511.9 340.1h-236.3c-2.6 0-4.8-2.1-4.8-4.8v-184.4c0-2.6 2.1-4.8 4.8-4.8h236.3c2.6 0 4.8 2.1 4.8 4.8v184.4c-.1 2.6-2.2 4.8-4.8 4.8z" fill="#b0d8ff"/><path d="m507.6 340.1h-232.1c-2.6 0-4.7-2.1-4.7-4.7v-179.9c0-2.6 2.1-4.7 4.7-4.7h232.1c2.6 0 4.7 2.1 4.7 4.7v179.9c-.1 2.6-2.2 4.7-4.7 4.7z" fill="url(#e)"/><path d="m340 170.4h-27.1c-.9 0-1.7-.9-1.7-2 0-1.1.8-2 1.7-2h27.1c.9 0 1.7.9 1.7 2 0 1.1-.7 2-1.7 2z" fill="#00d967"/><path d="m366.5 188.2h-46c-.9 0-1.7-.9-1.7-2 0-1.1.8-2 1.7-2h46c.9 0 1.7.9 1.7 2 0 1.2-.8 2-1.7 2z" fill="#006dfe"/><path d="m385 188.2h70.1c.9 0 1.7-.9 1.7-2 0-1.1-.8-2-1.7-2h-70.1c-.9 0-1.7.9-1.7 2 0 1.2.8 2 1.7 2z" fill="#00d967"/><path d="m366.5 206.1h-46c-.9 0-1.7-.9-1.7-2 0-1.1.8-2 1.7-2h46c.9 0 1.7.9 1.7 2 0 1.1-.8 2-1.7 2z" fill="#006dfe"/><path d="m358.9 223.9h-46c-.9 0-1.7-.9-1.7-2 0-1.1.8-2 1.7-2h46c.9 0 1.7.9 1.7 2 0 1.1-.8 2-1.7 2z" fill="#00d967"/><path d="m456.4 223.9h-78.9c-.9 0-1.7-.9-1.7-2 0-1.1.8-2 1.7-2h78.9c.9 0 1.7.9 1.7 2 0 1.1-.8 2-1.7 2z" fill="#006dfe"/><path d="m406.2 206.1h-23.2c-.9 0-1.7-.9-1.7-2 0-1.1.8-2 1.7-2h23.2c.9 0 1.7.9 1.7 2 0 1.1-.7 2-1.7 2z" fill="#006dfe"/><path d="m447 206.1h-23.2c-.9 0-1.7-.9-1.7-2 0-1.1.8-2 1.7-2h23.2c.9 0 1.7.9 1.7 2 0 1.1-.8 2-1.7 2z" fill="#006dfe"/><path d="m343.7 241.8h-30.2c-.9 0-1.7-.9-1.7-2 0-1.1.8-2 1.7-2h30.2c.9 0 1.7.9 1.7 2 0 1.1-.8 2-1.7 2z" fill="#006dfe"/><path d="m406.3 241.8h-46c-.9 0-1.7-.9-1.7-2 0-1.1.8-2 1.7-2h46c.9 0 1.7.9 1.7 2 0 1.1-.8 2-1.7 2z" fill="#00d967"/><path d="m439.8 241.8h-17.2c-.9 0-1.7-.9-1.7-2 0-1.1.8-2 1.7-2h17.2c.9 0 1.7.9 1.7 2 0 1.1-.7 2-1.7 2z" fill="#006dfe"/><path d="m372.1 259.6h-26.9c-.9 0-1.7-.9-1.7-2 0-1.1.8-2 1.7-2h26.9c.9 0 1.7.9 1.7 2 0 1.1-.7 2-1.7 2z" fill="#006dfe"/><path d="m436.5 259.6h-46c-.9 0-1.7-.9-1.7-2 0-1.1.8-2 1.7-2h46c.9 0 1.7.9 1.7 2 0 1.1-.7 2-1.7 2z" fill="#006dfe"/><path d="m421.8 277.4h-86.1c-.9 0-1.7-.9-1.7-2 0-1.1.8-2 1.7-2h86.1c.9 0 1.7.9 1.7 2 0 1.2-.8 2-1.7 2z" fill="#006dfe"/><path d="m486.2 277.4h-52c-.9 0-1.7-.9-1.7-2 0-1.1.8-2 1.7-2h52c.9 0 1.7.9 1.7 2 0 1.2-.7 2-1.7 2z" fill="#006dfe"/><path d="m358.9 295.3h-46c-.9 0-1.7-.9-1.7-2 0-1.1.8-2 1.7-2h46c.9 0 1.7.9 1.7 2 0 1.1-.8 2-1.7 2z" fill="#006dfe"/><path d="m414.5 295.3h-46c-.9 0-1.7-.9-1.7-2 0-1.1.8-2 1.7-2h46c.9 0 1.7.9 1.7 2 0 1.1-.7 2-1.7 2z" fill="#00d967"/><path d="m418.9 313.1h-69.8c-.9 0-1.7-.9-1.7-2 0-1.1.8-2 1.7-2h69.8c.9 0 1.7.9 1.7 2 0 1.1-.7 2-1.7 2z" fill="#006dfe"/><path d="m288.8 166.4h3.4v4h-3.4z" fill="#006dfe"/><path d="m288.8 184.3h3.4v4h-3.4z" fill="#006dfe"/><path d="m288.8 202.1h3.4v4h-3.4z" fill="#006dfe"/><path d="m288.8 219.9h3.4v4h-3.4z" fill="#006dfe"/><path d="m288.8 237.8h3.4v4h-3.4z" fill="#006dfe"/><path d="m288.8 255.6h3.4v4h-3.4z" fill="#006dfe"/><path d="m288.8 264.5h3.4v4h-3.4z" fill="#006dfe"/><path d="m288.8 273.5h3.4v4h-3.4z" fill="#006dfe"/><path d="m288.8 282.4h3.4v4h-3.4z" fill="#006dfe"/><path d="m288.8 291.3h3.4v4h-3.4z" fill="#006dfe"/><path d="m288.8 300.2h3.4v4h-3.4z" fill="#006dfe"/><path d="m288.8 309.1h3.4v4h-3.4z" fill="#006dfe"/><path d="m288.8 318.1h3.4v4h-3.4z" fill="#006dfe"/><path d="m468.4 321.2-12.3-6.2c-.4-.2-.6-.6-.6-1.1v-1.3c0-.5.2-.9.6-1.1l12.3-6.2c.7-.3 1.4.2 1.4 1.1v.5c0 .5-.3.9-.6 1.1l-8.5 4.1c-.9.4-.9 1.8 0 2.2l8.5 4.1c.4.2.6.6.6 1.1v.5c.1 1-.7 1.6-1.4 1.2z" fill="#006dfe"/><path d="m479.6 301.9-5.7 23.2c-.1.5-.5.9-1 .9-.7 0-1.2-.8-1-1.6l5.7-23.2c.1-.5.5-.9 1-.9.7 0 1.2.8 1 1.6z" fill="#006dfe"/><path d="m495.4 315.1-12.3 6.2c-.7.3-1.4-.2-1.4-1.1v-.5c0-.5.3-.9.6-1.1l8.5-4.1c.9-.4.9-1.8 0-2.2l-8.5-4.1c-.4-.2-.6-.6-.6-1.1v-.5c0-.9.8-1.5 1.4-1.1l12.3 6.2c.4.2.6.6.6 1.1v1.3c.1.3-.2.8-.6 1z" fill="#006dfe"/><use fill="#b0d8ff" xlink:href="#a"/><path clip-path="url(#f)" d="m309 470.5s8.4 1.5 13.2 10.4c4.8 9 8.8-1 7.9-5.1s-.4-8.3-2.9-11.4-7.2-7.6-13.7-5.9-7.3.8-6.9 4.6c.4 3.9 1 8 1 8" opacity=".34"/><ellipse cx="280.6" cy="541" fill="#191e56" rx="7.5" ry="8.3"/><path d="m324.2 548.5c0 4.6-3.4 8.3-7.5 8.3-4.2 0-7.5-3.7-7.5-8.3s3.4-8.3 7.5-8.3 7.5 3.7 7.5 8.3z" fill="#191e56"/><path d="m359.8 541c0 4.6-3.4 8.3-7.5 8.3-4.2 0-7.5-3.7-7.5-8.3s3.4-8.3 7.5-8.3 7.5 3.7 7.5 8.3z" fill="#191e56"/><path d="m309.5 494.3s6.6-2.7 13.6 0l.2 9.4 34.2 28.2v6.7h-10.1l-.1-5.2-26.3-20.3.2 25.6-1.3 6h-6.8l-1.3-6-.3-25-26.1 19.6-.1 5-9.4.1v-7.1l33.6-27.4v-5.7z" fill="#0542bf"/><use fill="#006dfe" xlink:href="#n"/><path clip-path="url(#g)" d="m336 315.5s10.5 1.8 16.1 14.8 4.4 32.4 2.9 57.6 5.8 25.8 6.6 43.3-3.3 34-26.4 41.9c-23.1 7.8-42.5 11.4-72.2 6.6l-22.1-25.2 10.7-49.1s20-20 22.5-35.1c2.5-15 21.9-52.5 29.7-58s32.2 3.2 32.2 3.2z" fill="#004efc"/><use fill="#ffab00" xlink:href="#o"/><path clip-path="url(#h)" d="m327.2 327.4s-3.6 4.2-2.3 12c1.3 7.7 7 18.6 4.8 22.7s-6.3 11-5.4 12.6 2.7 2.5 2.7 2.5l11.8 7.5s3.1.9 5.3-.6 0 0 0 0l1.5.4-34.8 18.7-4-5.8s12.6-13.7 13.8-18.3c1.1-4.6.3-5 2.9-9.6s5.2-7.6 3.5-12.7-4.7-13.4-4.1-18.3 1-7.9 4.3-11.1z" fill="#fe8e00"/><path clip-path="url(#h)" d="m281.4 328s-2.2 9.1.1 20.2 8.2 39.8 8.2 39.8l1.4-.7c0 .1-9.7-48.9-9.7-59.3z" fill="#fe8e00"/><path d="m250 538.1s-.8 6.6-.8 12c0 5.3 3.6 9.6 1.8 14.6-1.9 5-17.1 5.2-28 6.4-10.9 1.3-20.5-1-19.1-9.2s19-4.9 25.9-15.1c6.9-10.1 4.8-11.8 4.8-11.8z" fill="#ffab00"/><path d="m308.2 543.2s-.8 6.6-.8 12c0 5.3 3.6 9.6 1.8 14.6-1.9 5-17.1 5.2-28 6.4-10.9 1.3-20.5-1-19.1-9.2s19-4.9 25.9-15.1c6.9-10.1 4.8-11.8 4.8-11.8z" fill="#ffab00"/><use fill="#1e2889" xlink:href="#p"/><path clip-path="url(#i)" d="m225.7 436.9s19.1 4.3 22.6 28 7.6 41.1 7.6 41.1l9.7-34.8 34-18.2 21.1-16.6 10.7-24.5-16.9-8.9-51.4 4.3-27 14z" fill="#1a1a7c"/><use fill="#1e2889" xlink:href="#q"/><path clip-path="url(#j)" d="m282.4 491c.6-1.9 9.3-37.1 45.2-28.9s0 0 0 0l11.3-5.4s14.8-12.2 15.8-13.8c1.1-1.5.2-14 .3-15.7.2-1.7 0-19.9 0-19.9l-71.1-1.7 1 25.4-2.5 38.8z" fill="#1a1a7c"/><path d="m118.4 580.7v-166.3c0-.3.2-.5.5-.5h4.6c.3 0 .5.2.5.5v166.3c0 .3-.2.5-.5.5h-4.6c-.3 0-.5-.2-.5-.5z" fill="#191e56"/><path d="m392.3 580.7v-166.3c0-.3.2-.5.5-.5h4.6c.3 0 .5.2.5.5v166.3c0 .3-.2.5-.5.5h-4.6c-.2 0-.5-.2-.5-.5z" fill="#191e56"/><path d="m186.9 559.7-10.2-146.9c0-.6.4-1.1 1-1.2l3.3-.2c.6 0 1.1.4 1.2 1l10.2 146.9c0 .6-.4 1.1-1 1.2l-3.3.2c-.7.1-1.2-.4-1.2-1z" fill="#191e56"/><path d="m452 559.7-10.2-146.9c0-.6.4-1.1 1-1.2l3.3-.2c.6 0 1.1.4 1.2 1l10.2 146.9c0 .6-.4 1.1-1 1.2l-3.3.2c-.7.1-1.2-.4-1.2-1z" fill="#191e56"/><path d="m456.5 419.4h-348.2c-.6 0-1-.4-1-1v-9.1c0-.6.4-1 1-1h348.3c.6 0 1 .4 1 1v9.1c-.1.6-.5 1-1.1 1z" fill="#0542bf"/><path d="m359.7 382h72.3v8.8h-72.3z" fill="#ffab00"/><path d="m361.6 390.8h72.3v8.8h-72.3z" fill="#00d967"/><path d="m358.1 399.5h72.3v8.8h-72.3z" fill="#de4d30"/><path d="m187.5 299.9 3.9 5.4c1.8-3.8 5.6-5.5 8-6.3l-5.4-4.1s-.9 0-2.1.3c-1.5.5-3.3 1.6-4.2 4.3-.1.2-.1.3-.2.4z" fill="#9bb4c9"/><path d="m133.7 345.5c0 2.5 1.8 4.6 4.1 5.2.4.1.8.1 1.2.1s.7 0 1-.1c2.4-.5 4.3-2.6 4.3-5.2 0-1-.3-1.9-.7-2.6-.4-.6-.9-1.2-1.5-1.6-.9-.7-2-1-3.2-1-2.8-.2-5.2 2.2-5.2 5.2z" fill="#4143c5"/><path d="m181.4 294.3c0 1 .3 2 .8 2.8.4.6.9 1.2 1.5 1.6.8.6 1.9.9 3 .9.3 0 .7 0 1-.1.9-2.7 2.8-3.8 4.2-4.3.1-.3.1-.6.1-.9 0-2.9-2.4-5.3-5.3-5.3-3 0-5.3 2.4-5.3 5.3z" fill="#4143c5"/><path d="m142.1 341.2c.6.4 1.1 1 1.5 1.6l22.8-25.1 4.8-5.2 7-7.7 5.5-6.1c-.6-.4-1.1-.9-1.5-1.6l-6.6 7.2-4.6 5.1-4.9 5.4z" fill="#9bb4c9"/><path d="m130.9 403.9v-.1c17.6-6.5 32.5-.5 33.7 0-3.5.9-16.7 3.8-33.7.1z" fill="#4143c5"/><path d="m137.8 350.6 7.9 45.4 1.1 6 .1.6 2.1-.4v-.2l-1.1-6.2-7.9-45.2c-.3.1-.7.1-1 .1-.4.1-.8 0-1.2-.1z" fill="#9bb4c9"/><path d="m190.7 308 5.4 12.1.9 2.1 8.1-6.9 7.3-6.8 4.4-4.1-1.5-1.3h-.1l-13.5-5.8s-.9.1-2.1.5c-2.4.7-6.2 2.4-8 6.3-.2.4-.4.9-.5 1.4-.2.7-.3 1.5-.4 2.5z" fill="#4143c5"/><path d="m211.2 317.7c5.4-5.1 7.7-11.3 5.3-13.9-2.5-2.6-8.8-.7-14.2 4.4s-7.7 11.3-5.3 13.9c2.5 2.7 8.8.7 14.2-4.4z" fill="#859ad0"/><path d="m130.9 403.9h33.7v4.4h-33.7z" fill="#859ad0"/><path d="m476.3 514.8c0 .4-.1.8-.2 1.1-1.7 4.3-12.9 7.7-26.4 7.7-13.7 0-25-3.4-26.5-7.8l-.2-1c0-4.9 11.9-8.8 26.7-8.8 14.7 0 26.6 4 26.6 8.8z" fill="#191e56"/><path d="m476.1 516-9.2 54.1c-16.8 9.5-34.5 0-34.5 0l-9.2-54.3c1.5 4.4 12.8 7.8 26.5 7.8 13.5 0 24.7-3.3 26.4-7.6z" fill="#0542bf"/><use fill="#ffaca6" xlink:href="#r"/><path clip-path="url(#k)" d="m294.9 307.3s8.9-1.8 16.6 4.3c0 0 .5-13.1.9-13.5.3-.4-14.3-7-14.3-7s-5.2 3.1-5.3 5.5c-.2 2.5 2.1 10.7 2.1 10.7z" fill="#ea756c"/><use fill="#1e2889" xlink:href="#s"/><path clip-path="url(#l)" d="m271.2 267.3s.2 1.5 6 0 13.1-3.9 22.7 2.3 13.2 19.1 20.8 17.6l-5.7 12.2-12.4 8s-19.8-5.7-20.6-7.9-6.4-15.5-7.2-17.5-2-7.1-2-7.1z" fill="#172272"/><use fill="#ffaca6" xlink:href="#t"/><path clip-path="url(#m)" d="m278.1 277s6.9.6 13.6 2 10.2 11.1 17.2 10c7.1-1.2 4-5 4-5l-6.6-8.9-15.4-5-9.3-1.5-3.8 3.1z" fill="#ea756c"/><path d="m327 377.2s-11.3 11.9-19.9 14.9-12.7 0-16.1 6.9l-.7 1.5s12.4 4 21.3-.4l27.2-15.4z" fill="#ffaca6"/><path d="m225.7 400.9h101.8v7.4h-101.8z" fill="#78c2ff"/><path d="m300.5 408.3h-88.7l-12.8-62.2h88.7z" fill="#b0d8ff"/><path d="m293.9 408.3h-88.7l-12.9-62.2h88.7z" fill="#78c2ff"/><path d="m456.5 375.6h44.2v19.5h-44.2z" fill="#daebff"/><path d="m474.3 395.2h44.2v19.5h-44.2z" fill="#ebf5ff"/><ellipse cx="239.6" cy="372" fill="#fff" rx="8.3" ry="9.2" transform="matrix(.9901 -.1403 .1403 .9901 -49.8438 37.306)"/></svg>